<mxfile host="app.diagrams.net" modified="2021-01-14T02:15:14.796Z" agent="5.0 (Macintosh; Intel Mac OS X 10_13_6) AppleWebKit/537.36 (KHTML, like Gecko) Chrome/87.0.4280.141 Safari/537.36" etag="JW9HzVQcwW6hUQNm_MHW" version="14.1.9" type="github">
  <diagram id="bb1bCv3G0d4AJzqR_2OL" name="Page-1">
    <mxGraphModel dx="768" dy="430" grid="1" gridSize="10" guides="1" tooltips="1" connect="1" arrows="1" fold="1" page="1" pageScale="1" pageWidth="827" pageHeight="1169" math="0" shadow="0">
      <root>
        <mxCell id="0" />
        <mxCell id="1" parent="0" />
        <mxCell id="6ZmAu8jOVCQzenT5hlyt-17" value="" style="edgeStyle=orthogonalEdgeStyle;rounded=0;orthogonalLoop=1;jettySize=auto;html=1;" edge="1" parent="1" source="6ZmAu8jOVCQzenT5hlyt-1" target="6ZmAu8jOVCQzenT5hlyt-14">
          <mxGeometry relative="1" as="geometry" />
        </mxCell>
        <mxCell id="6ZmAu8jOVCQzenT5hlyt-1" value="加解密服务" style="rounded=1;whiteSpace=wrap;html=1;fillColor=#66FFB3;" vertex="1" parent="1">
          <mxGeometry x="300" y="170" width="120" height="60" as="geometry" />
        </mxCell>
        <mxCell id="6ZmAu8jOVCQzenT5hlyt-2" value="三未信安&lt;br&gt;签名验签服务器" style="rounded=1;whiteSpace=wrap;html=1;fillColor=#66B2FF;" vertex="1" parent="1">
          <mxGeometry x="210" y="300" width="120" height="60" as="geometry" />
        </mxCell>
        <mxCell id="6ZmAu8jOVCQzenT5hlyt-3" value="安华金和&lt;br&gt;签名验签服务器" style="rounded=1;whiteSpace=wrap;html=1;fillColor=#66B2FF;" vertex="1" parent="1">
          <mxGeometry x="390" y="300" width="120" height="60" as="geometry" />
        </mxCell>
        <mxCell id="6ZmAu8jOVCQzenT5hlyt-5" value="" style="endArrow=classic;startArrow=classic;html=1;exitX=0.5;exitY=0;exitDx=0;exitDy=0;entryX=0.25;entryY=1;entryDx=0;entryDy=0;" edge="1" parent="1" source="6ZmAu8jOVCQzenT5hlyt-2" target="6ZmAu8jOVCQzenT5hlyt-1">
          <mxGeometry width="50" height="50" relative="1" as="geometry">
            <mxPoint x="430" y="260" as="sourcePoint" />
            <mxPoint x="480" y="210" as="targetPoint" />
          </mxGeometry>
        </mxCell>
        <mxCell id="6ZmAu8jOVCQzenT5hlyt-6" value="" style="endArrow=classic;startArrow=classic;html=1;entryX=0.75;entryY=1;entryDx=0;entryDy=0;exitX=0.5;exitY=0;exitDx=0;exitDy=0;" edge="1" parent="1" source="6ZmAu8jOVCQzenT5hlyt-3" target="6ZmAu8jOVCQzenT5hlyt-1">
          <mxGeometry width="50" height="50" relative="1" as="geometry">
            <mxPoint x="430" y="260" as="sourcePoint" />
            <mxPoint x="480" y="210" as="targetPoint" />
          </mxGeometry>
        </mxCell>
        <mxCell id="6ZmAu8jOVCQzenT5hlyt-7" value="党员信息管理系统" style="rounded=1;whiteSpace=wrap;html=1;fillColor=#FF6666;" vertex="1" parent="1">
          <mxGeometry x="180" y="40" width="120" height="60" as="geometry" />
        </mxCell>
        <mxCell id="6ZmAu8jOVCQzenT5hlyt-8" value="" style="endArrow=classic;startArrow=classic;html=1;entryX=0.5;entryY=1;entryDx=0;entryDy=0;exitX=0.5;exitY=0;exitDx=0;exitDy=0;" edge="1" parent="1" source="6ZmAu8jOVCQzenT5hlyt-1" target="6ZmAu8jOVCQzenT5hlyt-7">
          <mxGeometry width="50" height="50" relative="1" as="geometry">
            <mxPoint x="430" y="200" as="sourcePoint" />
            <mxPoint x="480" y="150" as="targetPoint" />
          </mxGeometry>
        </mxCell>
        <mxCell id="6ZmAu8jOVCQzenT5hlyt-9" value="党组织信息管理系统" style="rounded=1;whiteSpace=wrap;html=1;fillColor=#FF6666;" vertex="1" parent="1">
          <mxGeometry x="413" y="40" width="120" height="60" as="geometry" />
        </mxCell>
        <mxCell id="6ZmAu8jOVCQzenT5hlyt-10" value="" style="endArrow=classic;startArrow=classic;html=1;exitX=0.5;exitY=0;exitDx=0;exitDy=0;entryX=0.5;entryY=1;entryDx=0;entryDy=0;" edge="1" parent="1" source="6ZmAu8jOVCQzenT5hlyt-1" target="6ZmAu8jOVCQzenT5hlyt-9">
          <mxGeometry width="50" height="50" relative="1" as="geometry">
            <mxPoint x="430" y="200" as="sourcePoint" />
            <mxPoint x="480" y="150" as="targetPoint" />
          </mxGeometry>
        </mxCell>
        <mxCell id="6ZmAu8jOVCQzenT5hlyt-11" value="" style="endArrow=none;dashed=1;html=1;dashPattern=1 3;strokeWidth=2;" edge="1" parent="1">
          <mxGeometry width="50" height="50" relative="1" as="geometry">
            <mxPoint x="330" y="80" as="sourcePoint" />
            <mxPoint x="380" y="80" as="targetPoint" />
          </mxGeometry>
        </mxCell>
        <mxCell id="6ZmAu8jOVCQzenT5hlyt-13" value="缓存" style="rounded=0;whiteSpace=wrap;html=1;" vertex="1" parent="1">
          <mxGeometry x="480" y="145" width="40" height="110" as="geometry" />
        </mxCell>
        <mxCell id="6ZmAu8jOVCQzenT5hlyt-14" value="监控" style="rounded=0;whiteSpace=wrap;html=1;" vertex="1" parent="1">
          <mxGeometry x="200" y="145" width="40" height="110" as="geometry" />
        </mxCell>
        <mxCell id="6ZmAu8jOVCQzenT5hlyt-15" value="" style="endArrow=classic;html=1;exitX=1;exitY=0.5;exitDx=0;exitDy=0;" edge="1" parent="1" source="6ZmAu8jOVCQzenT5hlyt-1" target="6ZmAu8jOVCQzenT5hlyt-13">
          <mxGeometry width="50" height="50" relative="1" as="geometry">
            <mxPoint x="430" y="200" as="sourcePoint" />
            <mxPoint x="480" y="150" as="targetPoint" />
          </mxGeometry>
        </mxCell>
      </root>
    </mxGraphModel>
  </diagram>
</mxfile>
